<svg aria-hidden="true" style="position: absolute; width: 0; height: 0; overflow: hidden;" version="1.1" xmlns="http://www.w3.org/2000/svg" xmlns:xlink="http://www.w3.org/1999/xlink">
<defs>
<symbol id="icon-laptop" viewBox="0 0 48 48">
<title>laptop</title>
<path d="M43 30v-24c0-2.21-1.79-4-4-4h-30c-2.21 0-4 1.79-4 4v24l-5 10v2c0 2.21 1.79 4 4 4h40c2.21 0 4-1.79 4-4v-2l-5-10zM12.2 7h23.6c1.22 0 2.2 0.98 2.2 2.2v15.6c0 1.22-0.98 2.2-2.2 2.2h-23.6c-1.22 0-2.2-0.98-2.2-2.2l0-15.6c0-1.22 0.98-2.2 2.2-2.2zM18 36h12l1 4h-14l1-4z"></path>
</symbol>
<symbol id="icon-inbox" viewBox="0 0 20 20">
<title>inbox</title>
<path d="M0 2c0-1.1 0.9-2 2-2h16c1.105 0 2 0.895 2 2v0 16c0 1.105-0.895 2-2 2v0h-16c-1.105 0-2-0.895-2-2v0-16zM14 14h4v-12h-16v12h4c0 1.1 0.9 2 2 2h4c1.105 0 2-0.895 2-2v0z"></path>
</symbol>
<symbol id="icon-cord" viewBox="0 0 32 32">
<title>cord</title>
<path d="M26.917 18.518l-13.435-13.435c-0.586-0.586-0.586-1.536 0-2.121s1.535-0.586 2.121 0l3.182 3.182 3.89-3.889c0.586-0.586 1.535-0.586 2.121 0s0.586 1.535 0 2.121l-3.889 3.889 2.828 2.828 3.889-3.889c0.586-0.586 1.536-0.586 2.122 0s0.585 1.535 0 2.121l-3.89 3.89 3.183 3.182c0.585 0.586 0.585 1.535 0 2.121s-1.536 0.586-2.122 0zM20.907 23.821c-1.297 1.296-7.071 1.414-7.071 1.414l-7.071-7.071c0 0 0.118-5.774 1.414-7.071 1.297-1.296 4.95-4.949 4.95-4.949l12.728 12.728c-0.001-0.001-3.654 3.652-4.95 4.949zM6.765 19.578l5.657 5.657c0.391 0.391 0.391 1.023 0 1.414s-1.024 0.391-1.415 0l-5.656-5.657c-0.391-0.391-0.391-1.023 0-1.414s1.023-0.39 1.414 0zM9.593 26.649c0 0-0.475 0.476-1.061 1.061s-1.535 0.586-2.121 0l-0.354-0.354-2.829 2.828-1.414-1.414 2.829-2.828-0.353-0.353c-0.586-0.586-0.586-1.536 0-2.122s1.119-1.001 1.119-1.001l4.184 4.183z"></path>
</symbol>
<symbol id="icon-thermometer" viewBox="0 0 32 32">
<title>thermometer</title>
<path d="M18.959 17.913v-0.917h3.063v0.917h-3.063zM18.959 14.975h3.063v0.979h-3.063v-0.979zM18.959 13.015h3.063v0.98h-3.063v-0.98zM18.959 10.993h3.063v0.979l-3.063-0.062v-0.917zM18.959 8.909h3.063v1.042h-3.063v-1.042zM18.959 6.95h3.063v0.98h-3.063v-0.98zM20.733 24.153c0 3.246-2.632 5.878-5.878 5.878s-5.878-2.632-5.878-5.878c0-2.226 1.175-4.161 2.999-5.159v-13.087c0-1.623 1.378-2.938 3.001-2.938s2.939 1.315 2.939 2.938v13.235c1.688 1.034 2.817 2.888 2.817 5.011zM16.937 19.735v-13.828c0-1.082-0.877-1.959-1.959-1.959s-1.959 0.877-1.959 1.959v13.711c-1.794 0.728-3.062 2.48-3.062 4.535 0 2.705 2.193 4.898 4.898 4.898s4.897-2.193 4.897-4.898c0.001-1.958-1.155-3.633-2.815-4.418zM14.855 28.072c-2.165 0-3.919-1.755-3.919-3.919 0-1.869 1.311-3.426 3.062-3.818v-9.342h1.96v9.418c1.623 0.479 2.816 1.964 2.816 3.742 0 2.164-1.754 3.919-3.919 3.919z"></path>
</symbol>
<symbol id="icon-clock" viewBox="0 0 32 32">
<title>clock</title>
<path d="M16 0c-8.837 0-16 7.164-16 16s7.163 16 16 16 16-7.164 16-16c0-8.836-7.163-16-16-16zM16 28c-6.627 0-12-5.373-12-12s5.373-12 12-12 12 5.373 12 12-5.373 12-12 12zM23 14h-5v-7c0-0.552-0.447-1-1-1h-2c-0.553 0-1 0.448-1 1v10c0 0.553 0.447 1 1 1h8c0.553 0 1-0.447 1-1v-2c0-0.553-0.447-1-1-1z"></path>
</symbol>
<symbol id="icon-spoon-knife" viewBox="0 0 32 32">
<title>spoon-knife</title>
<path d="M7 0c-3.314 0-6 3.134-6 7 0 3.31 1.969 6.083 4.616 6.812l-0.993 16.191c-0.067 1.098 0.778 1.996 1.878 1.996h1c1.1 0 1.945-0.898 1.878-1.996l-0.993-16.191c2.646-0.729 4.616-3.502 4.616-6.812 0-3.866-2.686-7-6-7zM27.167 0l-1.667 10h-1.25l-0.833-10h-0.833l-0.833 10h-1.25l-1.667-10h-0.833v13c0 0.552 0.448 1 1 1h2.604l-0.982 16.004c-0.067 1.098 0.778 1.996 1.878 1.996h1c1.1 0 1.945-0.898 1.878-1.996l-0.982-16.004h2.604c0.552 0 1-0.448 1-1v-13h-0.833z"></path>
</symbol>
<symbol id="icon-happy" viewBox="0 0 32 32">
<title>happy</title>
<path d="M16 32c8.837 0 16-7.163 16-16s-7.163-16-16-16-16 7.163-16 16 7.163 16 16 16zM16 3c7.18 0 13 5.82 13 13s-5.82 13-13 13-13-5.82-13-13 5.82-13 13-13zM16 18.711c3.623 0 7.070-0.963 10-2.654-0.455 5.576-4.785 9.942-10 9.942s-9.544-4.371-10-9.947c2.93 1.691 6.377 2.658 10 2.658zM8 11c0-1.657 0.895-3 2-3s2 1.343 2 3c0 1.657-0.895 3-2 3s-2-1.343-2-3zM20 11c0-1.657 0.895-3 2-3s2 1.343 2 3c0 1.657-0.895 3-2 3s-2-1.343-2-3z"></path>
</symbol>
<symbol id="icon-smile" viewBox="0 0 32 32">
<title>smile</title>
<path d="M16 32c8.837 0 16-7.163 16-16s-7.163-16-16-16-16 7.163-16 16 7.163 16 16 16zM16 3c7.18 0 13 5.82 13 13s-5.82 13-13 13-13-5.82-13-13 5.82-13 13-13zM8 10c0-1.105 0.895-2 2-2s2 0.895 2 2c0 1.105-0.895 2-2 2s-2-0.895-2-2zM20 10c0-1.105 0.895-2 2-2s2 0.895 2 2c0 1.105-0.895 2-2 2s-2-0.895-2-2zM22.003 19.602l2.573 1.544c-1.749 2.908-4.935 4.855-8.576 4.855s-6.827-1.946-8.576-4.855l2.573-1.544c1.224 2.036 3.454 3.398 6.003 3.398s4.779-1.362 6.003-3.398z"></path>
</symbol>
<symbol id="icon-sad" viewBox="0 0 32 32">
<title>sad</title>
<path d="M16 32c8.837 0 16-7.163 16-16s-7.163-16-16-16-16 7.163-16 16 7.163 16 16 16zM16 3c7.18 0 13 5.82 13 13s-5.82 13-13 13-13-5.82-13-13 5.82-13 13-13zM8 10c0-1.105 0.895-2 2-2s2 0.895 2 2c0 1.105-0.895 2-2 2s-2-0.895-2-2zM20 10c0-1.105 0.895-2 2-2s2 0.895 2 2c0 1.105-0.895 2-2 2s-2-0.895-2-2zM9.997 24.398l-2.573-1.544c1.749-2.908 4.935-4.855 8.576-4.855s6.827 1.946 8.576 4.855l-2.573 1.544c-1.224-2.036-3.454-3.398-6.003-3.398s-4.779 1.362-6.003 3.398z"></path>
</symbol>
<symbol id="icon-confused" viewBox="0 0 32 32">
<title>confused</title>
<path d="M16 32c8.837 0 16-7.163 16-16s-7.163-16-16-16-16 7.163-16 16 7.163 16 16 16zM16 3c7.18 0 13 5.82 13 13s-5.82 13-13 13-13-5.82-13-13 5.82-13 13-13zM8 10c0-1.105 0.895-2 2-2s2 0.895 2 2c0 1.105-0.895 2-2 2s-2-0.895-2-2zM20 10c0-1.105 0.895-2 2-2s2 0.895 2 2c0 1.105-0.895 2-2 2s-2-0.895-2-2zM22.691 20h2.027c0.289 2.266-1.014 4.517-3.249 5.33-2.591 0.943-5.466-0.397-6.409-2.988-0.566-1.555-2.291-2.359-3.845-1.793-1.424 0.518-2.217 2.009-1.906 3.451h-2.027c-0.289-2.266 1.014-4.517 3.249-5.33 2.591-0.943 5.466 0.397 6.409 2.988 0.566 1.555 2.291 2.359 3.845 1.793 1.424-0.518 2.217-2.009 1.906-3.451z"></path>
</symbol>
<symbol id="icon-loop2" viewBox="0 0 32 32">
<title>loop2</title>
<path d="M27.802 5.197c-2.925-3.194-7.13-5.197-11.803-5.197-8.837 0-16 7.163-16 16h3c0-7.18 5.82-13 13-13 3.844 0 7.298 1.669 9.678 4.322l-4.678 4.678h11v-11l-4.198 4.197z"></path>
<path d="M29 16c0 7.18-5.82 13-13 13-3.844 0-7.298-1.669-9.678-4.322l4.678-4.678h-11v11l4.197-4.197c2.925 3.194 7.13 5.197 11.803 5.197 8.837 0 16-7.163 16-16h-3z"></path>
</symbol>
<symbol id="icon-developer_board" viewBox="0 0 24 24">
<title>developer_board</title>
<path d="M12 11.016h3.984v6h-3.984v-6zM6 6.984h5.016v5.016h-5.016v-5.016zM12 6.984h3.984v3h-3.984v-3zM6 12.984h5.016v4.031h-5.016v-4.031zM18 18.984v-13.969h-14.016v13.969h14.016zM21.984 9h-1.969v2.016h1.969v1.969h-1.969v2.016h1.969v2.016h-1.969v1.969c0 1.078-0.938 2.016-2.016 2.016h-14.016c-1.078 0-1.969-0.938-1.969-2.016v-13.969c0-1.078 0.891-2.016 1.969-2.016h14.016c1.078 0 2.016 0.938 2.016 2.016v1.969h1.969v2.016z"></path>
</symbol>
<symbol id="icon-lightbulb_outline" viewBox="0 0 24 24">
<title>lightbulb_outline</title>
<path d="M14.859 13.078c1.359-0.938 2.156-2.438 2.156-4.078 0-2.766-2.25-5.016-5.016-5.016s-5.016 2.25-5.016 5.016c0 1.641 0.797 3.141 2.156 4.078l0.844 0.609v2.297h4.031v-2.297zM12 2.016c3.844 0 6.984 3.141 6.984 6.984 0 2.391-1.172 4.453-3 5.719v2.297c0 0.563-0.422 0.984-0.984 0.984h-6c-0.563 0-0.984-0.422-0.984-0.984v-2.297c-1.828-1.266-3-3.328-3-5.719 0-3.844 3.141-6.984 6.984-6.984zM9 21v-0.984h6v0.984c0 0.563-0.422 0.984-0.984 0.984h-4.031c-0.563 0-0.984-0.422-0.984-0.984z"></path>
</symbol>
</defs>
</svg>
